<?xml version="1.0" encoding="utf-8"?>
<!-- Generator: Adobe Illustrator 20.1.0, SVG Export Plug-In . SVG Version: 6.00 Build 0)  -->
<svg version="1.1" id="Layer_1" xmlns="http://www.w3.org/2000/svg" xmlns:xlink="http://www.w3.org/1999/xlink" x="0px" y="0px"
	 viewBox="0 0 128 64" style="enable-background:new 0 0 128 64;" xml:space="preserve" width="128" height="64">
<style type="text/css">
	.st0{fill:#222222;}
	.st1{fill:#777777;}
</style>
<g id="Layer2">
	<path class="st0" d="M66,8h60v40H98v4h8v4H86v-4h8v-4H66V8z M122,44V12H70v32H122z"/>
	<polygon class="st0" points="105.6,30.4 104.2,29 97,36.2 97,16 95,16 95,36.2 87.8,29 86.4,30.4 96,40 	"/>
</g>
<g id="Layer1">
	<path class="st1" d="M2,8h60v40H34v4h8v4H22v-4h8v-4H2V8z M58,44V12H6v32H58z"/>
	<polygon class="st1" points="41.6,30.4 40.2,29 33,36.2 33,16 31,16 31,36.2 23.8,29 22.4,30.4 32,40 	"/>
</g>
</svg>
